<?xml version="1.0" standalone="no"?>
<!DOCTYPE svg PUBLIC "-//W3C//DTD SVG 20010904//EN"
 "http://www.w3.org/TR/2001/REC-SVG-20010904/DTD/svg10.dtd">
<svg version="1.0" xmlns="http://www.w3.org/2000/svg"
 width="512.000000pt" height="512.000000pt" viewBox="0 0 512.000000 512.000000"
 preserveAspectRatio="xMidYMid meet">
<metadata>
Created by potrace 1.14, written by Peter Selinger 2001-2017
</metadata>
<g transform="translate(0.000000,512.000000) scale(0.100000,-0.100000)"
fill="#000000" stroke="none">
<path d="M2490 4359 c-298 -210 -632 -454 -645 -471 -21 -30 -19 -70 5 -100
15 -19 388 -294 514 -378 12 -8 53 -37 92 -65 109 -78 85 -88 476 190 185 132
341 250 347 263 19 40 13 76 -16 104 -16 14 -171 128 -346 253 -213 152 -328
228 -350 231 -24 3 -43 -3 -77 -27z"/>
<path d="M1589 3728 c-130 -83 -659 -473 -666 -491 -15 -44 -3 -87 30 -111 56
-42 558 -401 604 -432 59 -40 94 -49 126 -33 33 18 291 203 295 211 2 5 10 8
17 8 7 0 15 3 17 8 2 4 57 45 123 92 66 46 122 87 125 90 3 3 24 18 48 33 23
15 50 43 59 62 31 65 22 73 -336 329 -179 128 -332 236 -339 240 -30 18 -68
15 -103 -6z"/>
<path d="M3435 3738 c-37 -21 -290 -203 -293 -210 -2 -5 -10 -8 -17 -8 -7 0
-15 -3 -17 -8 -1 -4 -57 -45 -123 -92 -66 -46 -122 -87 -125 -90 -3 -3 -24
-18 -48 -33 -23 -15 -50 -43 -59 -62 -31 -65 -22 -73 336 -329 179 -128 332
-236 339 -240 24 -14 63 -16 85 -5 22 12 328 229 337 239 3 4 22 16 43 29 21
13 43 28 50 35 6 6 65 49 129 95 187 133 184 154 -38 311 -82 57 -153 108
-159 113 -16 13 -255 184 -312 223 -58 40 -98 49 -128 32z"/>
<path d="M686 3094 c-15 -9 -92 -62 -170 -117 -77 -56 -151 -109 -163 -117
-148 -103 -326 -236 -338 -253 -19 -28 -19 -67 0 -94 15 -21 427 -322 613
-446 71 -48 92 -58 115 -53 44 9 681 464 702 502 29 51 14 95 -44 136 -27 18
-179 126 -339 240 -160 115 -302 210 -318 213 -17 3 -41 -2 -58 -11z"/>
<path d="M2529 3102 c-45 -19 -679 -480 -688 -500 -19 -40 -13 -76 17 -104 15
-14 171 -129 347 -254 273 -195 325 -229 355 -229 31 0 75 28 290 183 140 101
292 209 337 240 105 73 127 119 83 174 -15 19 -388 294 -514 378 -12 8 -52 36
-89 63 -66 48 -108 62 -138 49z"/>
<path d="M4205 2998 c-82 -59 -231 -164 -330 -235 -99 -70 -188 -137 -197
-148 -18 -21 -22 -54 -12 -91 5 -18 204 -169 360 -274 12 -8 90 -63 172 -123
82 -59 163 -110 179 -113 35 -7 64 12 430 275 87 63 184 132 216 155 95 65
118 112 82 163 -8 11 -99 81 -202 154 -196 140 -310 222 -330 239 -53 44 -169
109 -191 107 -16 -1 -91 -47 -177 -109z"/>
<path d="M1600 2452 c-19 -10 -174 -118 -345 -241 -345 -247 -364 -265 -331
-326 13 -23 110 -98 338 -261 176 -126 334 -235 351 -242 17 -7 40 -11 52 -8
21 5 653 451 689 487 26 25 26 94 0 119 -20 20 -609 441 -659 472 -38 23 -52
23 -95 0z"/>
<path d="M3425 2452 c-51 -31 -639 -453 -659 -473 -26 -24 -26 -94 0 -119 28
-27 649 -468 678 -481 18 -8 33 -9 55 -1 25 9 332 221 351 242 3 4 22 16 43
29 21 13 43 28 50 35 6 6 65 49 129 95 127 90 146 116 127 171 -9 24 -80 79
-341 266 -182 129 -342 240 -355 245 -34 13 -44 11 -78 -9z"/>
<path d="M2525 1821 c-11 -5 -130 -89 -265 -186 -135 -97 -282 -202 -327 -233
-81 -57 -103 -83 -103 -125 0 -35 24 -61 118 -128 48 -35 89 -66 92 -70 3 -3
10 -8 15 -10 6 -2 114 -78 240 -169 193 -138 236 -165 265 -164 30 0 87 37
372 239 185 132 341 250 347 263 19 40 13 76 -16 104 -60 56 -664 479 -690
483 -15 2 -37 1 -48 -4z"/>
</g>
</svg>
